<?xml version="1.0" encoding="utf-8"?>
<!-- Generator: Adobe Illustrator 16.0.0, SVG Export Plug-In . SVG Version: 6.00 Build 0)  -->
<!DOCTYPE svg PUBLIC "-//W3C//DTD SVG 1.1//EN" "http://www.w3.org/Graphics/SVG/1.1/DTD/svg11.dtd">
<svg version="1.1" id="Layer_1" xmlns="http://www.w3.org/2000/svg" xmlns:xlink="http://www.w3.org/1999/xlink" x="0px" y="0px"
	 width="300px" height="300px" viewBox="0 0 300 300" enable-background="new 0 0 300 300" xml:space="preserve">
<path fill="#221F21" d="M234.327,281.128H65.594c-3.591,0-6.502-2.911-6.502-6.502V43.389c0-3.591,2.911-6.502,6.502-6.502h168.733
	c3.591,0,6.502,2.911,6.502,6.502v231.237C240.829,278.217,237.918,281.128,234.327,281.128"/>
<path fill="#FFFFFF" d="M216.618,269.384H83.901c-6.996,0-12.667-5.671-12.667-12.667V61.298c0-6.996,5.671-12.667,12.667-12.667
	h132.717c6.996,0,12.667,5.671,12.667,12.667v195.419C229.285,263.713,223.614,269.384,216.618,269.384"/>
<rect x="87.121" y="243.962" fill="#9A9A9A" width="130.981" height="5.97"/>
<rect x="123.229" y="78.423" fill="#9A9A9A" width="94.874" height="5.04"/>
<rect x="123.229" y="87.423" fill="#9A9A9A" width="94.874" height="5.04"/>
<rect x="83.96" y="72.843" fill="none" stroke="#9A9A9A" stroke-width="3" stroke-miterlimit="10" width="25.2" height="25.2"/>
<rect x="123.229" y="119.894" fill="#9A9A9A" width="94.874" height="5.04"/>
<rect x="123.229" y="128.894" fill="#9A9A9A" width="94.874" height="5.04"/>
<rect x="83.96" y="114.314" fill="none" stroke="#9A9A9A" stroke-width="3" stroke-miterlimit="10" width="25.2" height="25.2"/>
<rect x="123.229" y="168.112" fill="#9A9A9A" width="94.874" height="5.04"/>
<rect x="123.229" y="177.112" fill="#9A9A9A" width="94.874" height="5.04"/>
<rect x="83.96" y="162.532" fill="none" stroke="#9A9A9A" stroke-width="3" stroke-miterlimit="10" width="25.2" height="25.2"/>
<rect x="123.229" y="216.329" fill="#9A9A9A" width="94.874" height="5.04"/>
<rect x="123.229" y="225.329" fill="#9A9A9A" width="94.874" height="5.04"/>
<rect x="83.96" y="210.749" fill="none" stroke="#9A9A9A" stroke-width="3" stroke-miterlimit="10" width="25.2" height="25.2"/>
<path fill="#63B9D3" d="M163.845,32.043c0,0,0.238-10.403-10.967-12.877c-2.161-0.477-4.403-0.482-6.564-0.003
	c-11.174,2.477-10.95,12.882-10.95,12.882c-28.399-1.526-28.93,20.832-28.93,20.832h86.357
	C192.791,52.877,192.244,30.517,163.845,32.043 M149.961,36.588c-3.408,0-6.171-2.763-6.171-6.171c0-3.408,2.763-6.17,6.171-6.17
	s6.171,2.762,6.171,6.17C156.132,33.825,153.369,36.588,149.961,36.588"/>
</svg>
