<?xml version="1.0" encoding="utf-8"?>
<!-- Generator: Adobe Illustrator 16.0.0, SVG Export Plug-In . SVG Version: 6.00 Build 0)  -->
<!DOCTYPE svg PUBLIC "-//W3C//DTD SVG 1.1//EN" "http://www.w3.org/Graphics/SVG/1.1/DTD/svg11.dtd">
<svg version="1.1" id="Layer_1" xmlns="http://www.w3.org/2000/svg" xmlns:xlink="http://www.w3.org/1999/xlink" x="0px" y="0px"
	 width="120px" height="120px" viewBox="0 0 120 120" enable-background="new 0 0 120 120" xml:space="preserve">
<path fill="#F9C790" d="M17.513,89.576c0,0-9.137,19.668-8.45,20.418s21.023-8.082,21.023-8.082l-3.617-7.905L17.513,89.576z"/>
<path fill="#282928" d="M11.962,101.965c0,0-3.452,7.805-3.045,8.136c0.508,0.414,8.149-2.749,8.149-2.749L11.962,101.965z"/>
<path fill="#F9A922" d="M17.497,89.592l72.642-73.25l12.164,12.113l-72.217,73.457c0,0-2.738-0.129-2.319-2.502
	c0,0-2.64,0.504-2.382-2.521c0,0-2.512,0.465-2.862-2.678c0,0-2.49,0.462-2.418-2.144C20.104,92.066,18.236,92.612,17.497,89.592"/>
<path fill="#F9BE32" d="M23.374,96.255c0.853,0.847,2.012,0.633,2.012,0.633c-0.259,3.026,2.38,2.522,2.38,2.522
	c-0.419,2.372,2.32,2.502,2.32,2.502l72.217-73.458l-5.928-5.902L23.374,96.255z"/>
<polygon fill="#E6E5E9" points="102.223,28.551 105.726,24.988 93.561,12.876 89.92,16.546 "/>
<path fill="#CF5953" d="M105.723,24.991l3.565-3.626c1.609-1.638,1.588-4.271-0.051-5.881l-6.309-6.204
	c-1.633-1.606-4.257-1.589-5.87,0.037l-3.639,3.669L105.723,24.991z"/>
</svg>
